<svg width="10" height="10" viewBox="0 0 10 10" fill="none" xmlns="http://www.w3.org/2000/svg">
<g clip-path="url(#clip0_2_1664)">
<rect width="10" height="10" fill="white"/>
<rect width="1" height="1" transform="matrix(-1 0 0 1 9 7)" fill="#DBFF00"/>
<rect width="1" height="1" transform="matrix(-1 0 0 1 2 7)" fill="#DBFF00"/>
<rect width="1" height="1" transform="matrix(-1 0 0 1 2 8)" fill="#FF0099"/>
<rect width="1" height="1" transform="matrix(-1 0 0 1 3 7)" fill="#DBFF00"/>
<rect width="1" height="1" transform="matrix(-1 0 0 1 4 6)" fill="#72CC00"/>
<rect width="1" height="1" transform="matrix(-1 0 0 1 6 7)" fill="#DBFF00"/>
<rect width="1" height="1" transform="matrix(-1 0 0 1 7 7)" fill="#DBFF00"/>
<rect y="5" width="1" height="1" fill="#FF0099"/>
<rect width="1" height="1" transform="matrix(-1 0 0 1 9 8)" fill="#FF0099"/>
<rect width="1" height="1" transform="matrix(1 8.74228e-08 8.74228e-08 -1 7 8)" fill="#DBFF00"/>
<rect width="1" height="1" transform="matrix(1 8.74228e-08 8.74228e-08 -1 7 9)" fill="#DBFF00"/>
<rect x="4" y="4" width="1" height="1" fill="#DBFF00"/>
<rect x="3" y="4" width="1" height="1" fill="#DBFF00"/>
<rect x="10" y="6" width="1" height="1" transform="rotate(180 10 6)" fill="#FF0099"/>
<rect y="5" width="1" height="1" fill="#FF0099"/>
<rect x="10" y="6" width="1" height="1" transform="rotate(180 10 6)" fill="#FF0099"/>
<rect width="1" height="1" transform="matrix(1 8.74228e-07 8.74228e-09 -1 0 8)" fill="#FF0099"/>
<rect x="5" y="4" width="1" height="1" fill="#DBFF00"/>
<rect width="1" height="1" transform="matrix(-1 0 0 1 3 8)" fill="#DBFF00"/>
<rect width="1" height="1" transform="matrix(-1 0 0 1 4 8)" fill="#72CC00"/>
<rect width="1" height="1" transform="matrix(-1 0 0 1 4 7)" fill="#DBFF00"/>
<rect width="1" height="1" transform="matrix(-1 0 0 1 6 8)" fill="#DBFF00"/>
<rect width="1" height="1" transform="matrix(-1 0 0 1 7 8)" fill="#DBFF00"/>
<rect width="1" height="1" transform="matrix(-1 0 0 1 10 7)" fill="#FF0099"/>
<rect width="1" height="1" transform="matrix(-1 0 0 1 7 9)" fill="#DBFF00"/>
<rect width="1" height="1" transform="matrix(-1 0 0 1 4 9)" fill="#DBFF00"/>
<rect width="1" height="1" transform="matrix(-1 0 0 1 3 9)" fill="#FF0099"/>
<rect width="1" height="1" transform="matrix(-1 0 0 1 9 6)" fill="#DBFF00"/>
<rect width="1" height="1" transform="matrix(-1 0 0 1 6 9)" fill="#DBFF00"/>
<rect width="1" height="1" transform="matrix(-1 0 0 1 8 9)" fill="#FF0099"/>
<rect width="1" height="1" transform="matrix(-1 0 0 1 8 6)" fill="#DBFF00"/>
<rect width="1" height="1" transform="matrix(-1 0 0 1 7 6)" fill="#DBFF00"/>
<rect width="1" height="1" transform="matrix(-1 0 0 1 2 6)" fill="#DBFF00"/>
<rect width="1" height="1" transform="matrix(-1 0 0 1 3 6)" fill="#DBFF00"/>
<rect width="1" height="1" transform="matrix(-1 0 0 1 5 7)" fill="#DBFF00"/>
<rect x="9" y="5" width="1" height="1" transform="rotate(180 9 5)" fill="#FF0099"/>
<rect x="6" y="5" width="1" height="1" fill="#8F00FF"/>
<rect x="9" y="4" width="1" height="1" fill="#FF0099"/>
<rect y="4" width="1" height="1" fill="#FF0099"/>
<rect width="1" height="1" transform="matrix(-1 0 0 1 1 6)" fill="#FF0099"/>
<rect width="1" height="1" transform="matrix(-1 0 0 1 10 6)" fill="#FF0099"/>
<rect width="1" height="1" transform="matrix(-1 0 0 1 1 8)" fill="#FF0099"/>
<rect width="1" height="1" transform="matrix(-1 0 0 1 10 8)" fill="#FF0099"/>
<rect width="1" height="1" transform="matrix(-1 0 0 1 1 9)" fill="#FF0099"/>
<rect width="1" height="1" transform="matrix(-1 0 0 1 9 9)" fill="#FF0099"/>
<rect width="1" height="1" transform="matrix(-1 0 0 1 2 9)" fill="#FF0099"/>
<rect width="1" height="1" transform="matrix(-1 0 0 1 10 9)" fill="#FF0099"/>
<rect x="9" y="3" width="1" height="1" fill="#FF0099"/>
<rect y="3" width="1" height="1" fill="#DBFF00"/>
<rect x="9" y="2" width="1" height="1" fill="#DBFF00"/>
<rect y="2" width="1" height="1" fill="#DBFF00"/>
<rect x="9" y="1" width="1" height="1" fill="#DBFF00"/>
<rect y="1" width="1" height="1" fill="#DBFF00"/>
<rect x="9" width="1" height="1" fill="#FF0099"/>
<rect width="1" height="1" fill="#FF0099"/>
<rect x="3" y="1" width="1" height="1" fill="#DBFF00"/>
<rect x="3" width="1" height="1" fill="#FF0099"/>
<rect x="4" y="1" width="1" height="1" fill="#FF0099"/>
<rect x="4" width="1" height="1" fill="#FF0099"/>
<rect x="5" y="1" width="1" height="1" fill="#FF0099"/>
<rect x="5" width="1" height="1" fill="#FF0099"/>
<rect x="6" y="1" width="1" height="1" fill="#DBFF00"/>
<rect x="6" width="1" height="1" fill="#FF0099"/>
<rect x="7" width="1" height="1" fill="#DBFF00"/>
<rect x="2" width="1" height="1" fill="#DBFF00"/>
<rect x="4" y="5" width="1" height="1" fill="#DBFF00"/>
<rect x="3" y="5" width="1" height="1" fill="#DBFF00"/>
<rect x="5" y="5" width="1" height="1" fill="#DBFF00"/>
<rect x="1" y="5" width="1" height="1" fill="#8F00FF"/>
<rect x="9" y="6" width="1" height="1" transform="rotate(180 9 6)" fill="#DBFF00"/>
<rect width="1" height="1" transform="matrix(-1 0 0 1 5 8)" fill="#72CC00"/>
<rect width="1" height="1" transform="matrix(-1 0 0 1 5 9)" fill="#DBFF00"/>
<rect width="1" height="1" transform="matrix(-1 0 0 1 5 6)" fill="#DBFF00"/>
<rect width="1" height="1" transform="matrix(-1 0 0 1 6 6)" fill="#DBFF00"/>
<rect x="1" width="1" height="1" fill="#DBFF00"/>
<rect x="8" width="1" height="1" fill="#DBFF00"/>
<rect x="1" y="2" width="1" height="1" fill="#DBFF00"/>
<rect x="2" y="2" width="1" height="1" fill="#DBFF00"/>
<rect x="3" y="2" width="1" height="1" fill="#DBFF00"/>
<rect x="4" y="2" width="1" height="1" fill="#FF0099"/>
<rect x="8" y="2" width="1" height="1" fill="#DBFF00"/>
<rect x="7" y="2" width="1" height="1" fill="#DBFF00"/>
<rect x="6" y="2" width="1" height="1" fill="#DBFF00"/>
<rect x="5" y="2" width="1" height="1" fill="#FF0099"/>
<rect x="1" y="3" width="1" height="1" fill="#DBFF00"/>
<rect x="3" y="3" width="1" height="1" fill="#DBFF00"/>
<rect x="4" y="3" width="1" height="1" fill="#DBFF00"/>
<rect x="8" y="3" width="1" height="1" fill="#DBFF00"/>
<rect x="2" y="3" width="1" height="1" fill="#DBFF00"/>
<rect x="7" y="3" width="1" height="1" fill="#DBFF00"/>
<rect x="6" y="3" width="1" height="1" fill="#DBFF00"/>
<rect x="5" y="3" width="1" height="1" fill="#DBFF00"/>
<rect x="1" y="1" width="1" height="1" fill="#DBFF00"/>
<rect x="2" y="1" width="1" height="1" fill="#DBFF00"/>
<rect x="8" y="1" width="1" height="1" fill="#DBFF00"/>
<rect x="7" y="1" width="1" height="1" fill="#DBFF00"/>
<rect x="1" y="4" width="1" height="1" fill="white"/>
<rect x="2" y="4" width="1" height="1" fill="white"/>
<rect x="2" y="5" width="1" height="1" fill="white"/>
<rect x="6" y="4" width="1" height="1" fill="white"/>
<rect x="7" y="4" width="1" height="1" fill="white"/>
<rect x="7" y="5" width="1" height="1" fill="white"/>
</g>
<defs>
<clipPath id="clip0_2_1664">
<rect width="10" height="10" fill="white"/>
</clipPath>
</defs>
</svg>
