<svg width="10" height="10" viewBox="0 0 10 10" fill="none" xmlns="http://www.w3.org/2000/svg">
<g clip-path="url(#clip0_2_592)">
<rect width="10" height="10" fill="white"/>
<rect x="1" y="7" width="1" height="1" fill="#0094FF"/>
<rect x="8" y="7" width="1" height="1" fill="#0094FF"/>
<rect x="8" y="8" width="1" height="1" fill="#0094FF"/>
<rect x="7" y="7" width="1" height="1" fill="#0094FF"/>
<rect x="6" y="6" width="1" height="1" fill="#2EE600"/>
<rect x="4" y="7" width="1" height="1" fill="#0094FF"/>
<rect x="3" y="7" width="1" height="1" fill="#0094FF"/>
<rect y="5" width="1" height="1" fill="#0094FF"/>
<rect x="1" y="8" width="1" height="1" fill="#0094FF"/>
<rect x="2" y="5" width="1" height="1" transform="rotate(180 2 5)" fill="#0094FF"/>
<rect x="3" y="8" width="1" height="1" transform="rotate(180 3 8)" fill="#0094FF"/>
<rect x="3" y="9" width="1" height="1" transform="rotate(180 3 9)" fill="#0094FF"/>
<rect x="4" y="4" width="1" height="1" fill="#0094FF"/>
<rect x="10" y="6" width="1" height="1" transform="rotate(180 10 6)" fill="#0094FF"/>
<rect y="5" width="1" height="1" fill="#0094FF"/>
<rect x="10" y="6" width="1" height="1" transform="rotate(180 10 6)" fill="#0094FF"/>
<rect x="10" y="8" width="1" height="1" transform="rotate(180 10 8)" fill="#0094FF"/>
<rect x="5" y="4" width="1" height="1" fill="#0094FF"/>
<rect x="7" y="8" width="1" height="1" fill="#2EE600"/>
<rect x="6" y="8" width="1" height="1" fill="#2EE600"/>
<rect x="6" y="7" width="1" height="1" fill="#0094FF"/>
<rect x="4" y="8" width="1" height="1" fill="#2EE600"/>
<rect x="3" y="8" width="1" height="1" fill="#2EE600"/>
<rect y="7" width="1" height="1" fill="#0094FF"/>
<rect x="3" y="9" width="1" height="1" fill="#0094FF"/>
<rect x="6" y="9" width="1" height="1" fill="#0094FF"/>
<rect x="7" y="9" width="1" height="1" fill="#0094FF"/>
<rect x="1" y="6" width="1" height="1" fill="#0094FF"/>
<rect x="4" y="9" width="1" height="1" fill="#0094FF"/>
<rect x="2" y="9" width="1" height="1" fill="#0094FF"/>
<rect x="2" y="6" width="1" height="1" fill="#0094FF"/>
<rect x="3" y="6" width="1" height="1" fill="#0094FF"/>
<rect x="8" y="6" width="1" height="1" fill="#0094FF"/>
<rect x="7" y="6" width="1" height="1" fill="#0094FF"/>
<rect x="5" y="7" width="1" height="1" fill="#2EE600"/>
<rect x="7" y="5" width="1" height="1" transform="rotate(180 7 5)" fill="#0094FF"/>
<rect x="7" y="4" width="1" height="1" fill="#FF00C7"/>
<rect x="9" y="4" width="1" height="1" fill="#FFA800"/>
<rect y="4" width="1" height="1" fill="#FFA800"/>
<rect x="9" y="6" width="1" height="1" fill="#FFA800"/>
<rect y="6" width="1" height="1" fill="#FFA800"/>
<rect x="9" y="8" width="1" height="1" fill="#FFA800"/>
<rect y="8" width="1" height="1" fill="#FFA800"/>
<rect x="9" y="9" width="1" height="1" fill="#FFA800"/>
<rect x="1" y="9" width="1" height="1" fill="#FFA800"/>
<rect x="8" y="9" width="1" height="1" fill="#FFA800"/>
<rect y="9" width="1" height="1" fill="#FFA800"/>
<rect x="9" y="3" width="1" height="1" fill="#FFA800"/>
<rect y="3" width="1" height="1" fill="#FFA800"/>
<rect x="9" y="2" width="1" height="1" fill="#FFA800"/>
<rect y="2" width="1" height="1" fill="#FFA800"/>
<rect x="9" y="1" width="1" height="1" fill="#FFA800"/>
<rect y="1" width="1" height="1" fill="#FFA800"/>
<rect x="9" width="1" height="1" fill="#FFA800"/>
<rect width="1" height="1" fill="#FFA800"/>
<rect x="3" y="1" width="1" height="1" fill="#FFA800"/>
<rect x="3" width="1" height="1" fill="#FFA800"/>
<rect x="4" y="1" width="1" height="1" fill="#FFA800"/>
<rect x="4" width="1" height="1" fill="#FFA800"/>
<rect x="5" y="1" width="1" height="1" fill="#FFA800"/>
<rect x="5" width="1" height="1" fill="#FFA800"/>
<rect x="6" y="1" width="1" height="1" fill="#FFA800"/>
<rect x="6" width="1" height="1" fill="#FFA800"/>
<rect x="7" width="1" height="1" fill="#FFA800"/>
<rect x="2" width="1" height="1" fill="#FFA800"/>
<rect x="2" y="6" width="1" height="1" transform="rotate(180 2 6)" fill="#0094FF"/>
<rect x="4" y="5" width="1" height="1" fill="#0094FF"/>
<rect x="5" y="5" width="1" height="1" fill="#0094FF"/>
<rect x="2" y="4" width="1" height="1" fill="#FF00C7"/>
<rect x="2" y="5" width="1" height="1" fill="white"/>
<rect x="7" y="5" width="1" height="1" fill="white"/>
<rect x="3" y="5" width="1" height="1" fill="white"/>
<rect x="8" y="5" width="1" height="1" fill="white"/>
<rect x="3" y="4" width="1" height="1" fill="white"/>
<rect x="8" y="4" width="1" height="1" fill="white"/>
<rect x="7" y="6" width="1" height="1" transform="rotate(180 7 6)" fill="#0094FF"/>
<rect x="5" y="8" width="1" height="1" fill="#0094FF"/>
<rect x="5" y="9" width="1" height="1" fill="#0094FF"/>
<rect x="5" y="6" width="1" height="1" fill="#2EE600"/>
<rect x="4" y="6" width="1" height="1" fill="#2EE600"/>
<rect x="1" width="1" height="1" fill="#0094FF"/>
<rect x="8" width="1" height="1" fill="#0094FF"/>
<rect x="1" y="2" width="1" height="1" fill="#0094FF"/>
<rect x="2" y="2" width="1" height="1" fill="#0094FF"/>
<rect x="3" y="2" width="1" height="1" fill="#0094FF"/>
<rect x="4" y="2" width="1" height="1" fill="#0094FF"/>
<rect x="8" y="2" width="1" height="1" fill="#0094FF"/>
<rect x="7" y="2" width="1" height="1" fill="#0094FF"/>
<rect x="6" y="2" width="1" height="1" fill="#0094FF"/>
<rect x="5" y="2" width="1" height="1" fill="#0094FF"/>
<rect x="1" y="3" width="1" height="1" fill="#0094FF"/>
<rect x="3" y="3" width="1" height="1" fill="#0094FF"/>
<rect x="4" y="3" width="1" height="1" fill="#0094FF"/>
<rect x="8" y="3" width="1" height="1" fill="#0094FF"/>
<rect x="2" y="3" width="1" height="1" fill="#0094FF"/>
<rect x="7" y="3" width="1" height="1" fill="#0094FF"/>
<rect x="6" y="3" width="1" height="1" fill="#0094FF"/>
<rect x="5" y="3" width="1" height="1" fill="#0094FF"/>
<rect x="1" y="1" width="1" height="1" fill="#0094FF"/>
<rect x="2" y="1" width="1" height="1" fill="#0094FF"/>
<rect x="8" y="1" width="1" height="1" fill="#0094FF"/>
<rect x="7" y="1" width="1" height="1" fill="#0094FF"/>
</g>
<defs>
<clipPath id="clip0_2_592">
<rect width="10" height="10" fill="white"/>
</clipPath>
</defs>
</svg>
