<svg width="10" height="10" viewBox="0 0 10 10" fill="none" xmlns="http://www.w3.org/2000/svg">
<g clip-path="url(#clip0_2_391)">
<rect width="10" height="10" fill="white"/>
<rect width="1" height="1" transform="matrix(-1 0 0 1 9 6)" fill="#FF8A00"/>
<rect width="1" height="1" transform="matrix(-1 0 0 1 2 6)" fill="#FF8A00"/>
<rect width="1" height="1" transform="matrix(-1 0 0 1 3 6)" fill="#FF8A00"/>
<rect width="1" height="1" transform="matrix(-1 0 0 1 2 7)" fill="#FF8A00"/>
<rect width="1" height="1" transform="matrix(-1 0 0 1 2 8)" fill="#FF8A00"/>
<rect width="1" height="1" transform="matrix(-1 0 0 1 3 9)" fill="#FF8A00"/>
<rect width="1" height="1" transform="matrix(-1 0 0 1 4 6)" fill="#FFE600"/>
<rect width="1" height="1" transform="matrix(-1 0 0 1 7 6)" fill="#FF8A00"/>
<rect width="1" height="1" transform="matrix(-1 0 0 1 10 4)" fill="#FF8A00"/>
<rect width="1" height="1" transform="matrix(-1 0 0 1 9 7)" fill="#FF8A00"/>
<rect width="1" height="1" transform="matrix(1 1.09278e-07 6.99382e-08 -1 8 4)" fill="#FF8A00"/>
<rect width="1" height="1" transform="matrix(1 9.71364e-08 7.86805e-08 -1 7 7)" fill="#FF8A00"/>
<rect width="1" height="1" transform="matrix(1 9.71364e-08 7.86805e-08 -1 7 8)" fill="#FF8A00"/>
<rect width="1" height="1" transform="matrix(-1 0 0 1 6 3)" fill="#FF8A00"/>
<rect width="1" height="1" transform="matrix(1 8.74228e-08 8.74228e-08 -1 0 5)" fill="#FF8A00"/>
<rect width="1" height="1" transform="matrix(-1 0 0 1 10 4)" fill="#AD00FF"/>
<rect width="1" height="1" transform="matrix(1 8.74228e-08 8.74228e-08 -1 0 5)" fill="#AD00FF"/>
<rect width="1" height="1" transform="matrix(1 8.74228e-08 8.74228e-08 -1 0 7)" fill="#FF8A00"/>
<rect width="1" height="1" transform="matrix(-1 0 0 1 5 3)" fill="#FF8A00"/>
<rect width="1" height="1" transform="matrix(-1 0 0 1 3 7)" fill="#FF8A00"/>
<rect width="1" height="1" transform="matrix(-1 0 0 1 6 7)" fill="#FF8A00"/>
<rect width="1" height="1" transform="matrix(-1 0 0 1 7 7)" fill="#FF8A00"/>
<rect width="1" height="1" transform="matrix(-1 0 0 1 10 6)" fill="#FF8A00"/>
<rect width="1" height="1" transform="matrix(-1 0 0 1 7 8)" fill="#FFE600"/>
<rect width="1" height="1" transform="matrix(-1 0 0 1 4 8)" fill="#FFE600"/>
<rect width="1" height="1" transform="matrix(-1 0 0 1 4 9)" fill="#FF8A00"/>
<rect width="1" height="1" transform="matrix(-1 0 0 1 3 8)" fill="#FFE600"/>
<rect width="1" height="1" transform="matrix(-1 0 0 1 9 5)" fill="#FF8A00"/>
<rect width="1" height="1" transform="matrix(-1 0 0 1 6 8)" fill="#FFE600"/>
<rect width="1" height="1" transform="matrix(-1 0 0 1 8 8)" fill="#FF8A00"/>
<rect width="1" height="1" transform="matrix(-1 0 0 1 8 9)" fill="#FF8A00"/>
<rect width="1" height="1" transform="matrix(-1 0 0 1 8 3)" fill="#FF8A00"/>
<rect width="1" height="1" transform="matrix(-1 0 0 1 7 3)" fill="#FF8A00"/>
<rect width="1" height="1" transform="matrix(-1 0 0 1 2 3)" fill="#FF8A00"/>
<rect width="1" height="1" transform="matrix(-1 0 0 1 3 3)" fill="#FF8A00"/>
<rect width="1" height="1" transform="matrix(1 8.74228e-08 8.74228e-08 -1 3 4)" fill="#FF8A00"/>
<rect width="1" height="1" transform="matrix(-1 0 0 1 2 5)" fill="#00D1FF"/>
<rect width="1" height="1" transform="matrix(-1 0 0 1 1 3)" fill="#AD00FF"/>
<rect width="1" height="1" transform="matrix(-1 0 0 1 10 3)" fill="#AD00FF"/>
<rect width="1" height="1" transform="matrix(-1 0 0 1 1 5)" fill="#FF8A00"/>
<rect width="1" height="1" transform="matrix(-1 0 0 1 10 5)" fill="#FF8A00"/>
<rect width="1" height="1" transform="matrix(-1 0 0 1 1 7)" fill="#FF8A00"/>
<rect width="1" height="1" transform="matrix(-1 0 0 1 10 7)" fill="#FF8A00"/>
<rect width="1" height="1" transform="matrix(-1 0 0 1 1 8)" fill="#AD00FF"/>
<rect width="1" height="1" transform="matrix(-1 0 0 1 1 9)" fill="#AD00FF"/>
<rect width="1" height="1" transform="matrix(-1 0 0 1 1 9)" fill="#AD00FF"/>
<rect width="1" height="1" transform="matrix(-1 0 0 1 2 9)" fill="#AD00FF"/>
<rect width="1" height="1" transform="matrix(-1 0 0 1 9 8)" fill="#FF8A00"/>
<rect width="1" height="1" transform="matrix(-1 0 0 1 9 9)" fill="#AD00FF"/>
<rect width="1" height="1" transform="matrix(-1 0 0 1 10 8)" fill="#AD00FF"/>
<rect width="1" height="1" transform="matrix(-1 0 0 1 10 9)" fill="#AD00FF"/>
<rect width="1" height="1" transform="matrix(1 1.09278e-07 6.99382e-08 -1 8 5)" fill="#FF8A00"/>
<rect width="1" height="1" transform="matrix(-1 0 0 1 6 4)" fill="#FF8A00"/>
<rect width="1" height="1" transform="matrix(-1 0 0 1 5 4)" fill="#FF8A00"/>
<rect width="1" height="1" transform="matrix(-1 0 0 1 7 5)" fill="#00D1FF"/>
<rect width="1" height="1" transform="matrix(1 8.74228e-08 8.74228e-08 -1 3 5)" fill="#FF8A00"/>
<rect width="1" height="1" transform="matrix(-1 0 0 1 6 5)" fill="#FF8A00"/>
<rect width="1" height="1" transform="matrix(-1 0 0 1 5 5)" fill="#FF8A00"/>
<rect width="1" height="1" transform="matrix(1 8.74228e-08 8.74228e-08 -1 3 6)" fill="#FF8A00"/>
<rect width="1" height="1" transform="matrix(-1 0 0 1 5 7)" fill="#FFE600"/>
<rect width="1" height="1" transform="matrix(-1 0 0 1 4 7)" fill="#FF8A00"/>
<rect width="1" height="1" transform="matrix(-1 0 0 1 5 8)" fill="#FF8A00"/>
<rect width="1" height="1" transform="matrix(-1 0 0 1 5 9)" fill="#FF8A00"/>
<rect width="1" height="1" transform="matrix(-1 0 0 1 6 9)" fill="#FF8A00"/>
<rect width="1" height="1" transform="matrix(-1 0 0 1 7 9)" fill="#FF8A00"/>
<rect width="1" height="1" transform="matrix(-1 0 0 1 5 6)" fill="#FF8A00"/>
<rect width="1" height="1" transform="matrix(-1 0 0 1 6 6)" fill="#FFE600"/>
<rect width="1" height="1" transform="matrix(-1 0 0 1 1 2)" fill="#AD00FF"/>
<rect width="1" height="1" transform="matrix(-1 0 0 1 10 2)" fill="#AD00FF"/>
<rect width="1" height="1" transform="matrix(-1 0 0 1 1 1)" fill="#AD00FF"/>
<rect width="1" height="1" transform="matrix(-1 0 0 1 10 1)" fill="#AD00FF"/>
<rect width="1" height="1" transform="matrix(-1 0 0 1 1 0)" fill="#FF8A00"/>
<rect width="1" height="1" transform="matrix(-1 0 0 1 10 0)" fill="#AD00FF"/>
<rect width="1" height="1" transform="matrix(-1 0 0 1 6 0)" fill="#FF8A00"/>
<rect width="1" height="1" transform="matrix(-1 0 0 1 5 0)" fill="#AD00FF"/>
<rect width="1" height="1" transform="matrix(-1 0 0 1 4 0)" fill="#AD00FF"/>
<rect width="1" height="1" transform="matrix(-1 0 0 1 8 1)" fill="#FF8A00"/>
<rect width="1" height="1" transform="matrix(-1 0 0 1 7 1)" fill="#FF8A00"/>
<rect width="1" height="1" transform="matrix(-1 0 0 1 6 1)" fill="#AD00FF"/>
<rect width="1" height="1" transform="matrix(-1 0 0 1 2 1)" fill="#FF8A00"/>
<rect width="1" height="1" transform="matrix(-1 0 0 1 3 1)" fill="#FF8A00"/>
<rect width="1" height="1" transform="matrix(-1 0 0 1 4 1)" fill="#FF8A00"/>
<rect width="1" height="1" transform="matrix(-1 0 0 1 5 1)" fill="#AD00FF"/>
<rect width="1" height="1" transform="matrix(-1 0 0 1 8 2)" fill="#FF8A00"/>
<rect width="1" height="1" transform="matrix(-1 0 0 1 6 2)" fill="#AD00FF"/>
<rect width="1" height="1" transform="matrix(-1 0 0 1 7 2)" fill="#AD00FF"/>
<rect width="1" height="1" transform="matrix(-1 0 0 1 2 2)" fill="#AD00FF"/>
<rect width="1" height="1" transform="matrix(-1 0 0 1 9 2)" fill="#FF8A00"/>
<rect width="1" height="1" transform="matrix(-1 0 0 1 3 2)" fill="#FF8A00"/>
<rect width="1" height="1" transform="matrix(-1 0 0 1 4 2)" fill="#FF8A00"/>
<rect width="1" height="1" transform="matrix(-1 0 0 1 5 2)" fill="#AD00FF"/>
<rect width="1" height="1" transform="matrix(-1 0 0 1 8 0)" fill="#FF8A00"/>
<rect width="1" height="1" transform="matrix(-1 0 0 1 7 0)" fill="#FF8A00"/>
<rect width="1" height="1" transform="matrix(-1 0 0 1 2 0)" fill="#FF8A00"/>
<rect width="1" height="1" transform="matrix(-1 0 0 1 3 0)" fill="#FF8A00"/>
<rect width="1" height="1" transform="matrix(-1 0 0 1 9 0)" fill="#AD00FF"/>
<rect width="1" height="1" transform="matrix(-1 0 0 1 9 1)" fill="#FF8A00"/>
<rect x="1" y="4" width="1" height="1" fill="white"/>
<rect x="2" y="4" width="1" height="1" fill="white"/>
<rect x="2" y="5" width="1" height="1" fill="white"/>
<rect x="6" y="4" width="1" height="1" fill="white"/>
<rect x="7" y="4" width="1" height="1" fill="white"/>
<rect x="7" y="5" width="1" height="1" fill="white"/>
</g>
<defs>
<clipPath id="clip0_2_391">
<rect width="10" height="10" fill="white"/>
</clipPath>
</defs>
</svg>
